<?xml version="1.0" standalone="no"?>
<!DOCTYPE svg PUBLIC "-//W3C//DTD SVG 20010904//EN"
 "http://www.w3.org/TR/2001/REC-SVG-20010904/DTD/svg10.dtd">
<svg version="1.0" xmlns="http://www.w3.org/2000/svg"
 width="700.000000pt" height="700.000000pt" viewBox="0 0 700.000000 700.000000"
 preserveAspectRatio="xMidYMid meet">
<metadata>
Created by potrace 1.11, written by Peter Selinger 2001-2013
</metadata>
<g transform="translate(0.000000,700.000000) scale(0.100000,-0.100000)"
fill="#000000" stroke="none">
<path d="M420 6974 c-203 -54 -366 -230 -399 -432 -8 -48 -11 -907 -9 -3082
l3 -3015 27 -69 c63 -164 193 -289 353 -339 l70 -22 3035 0 3035 0 71 22 c185
58 338 230 374 418 8 44 10 855 8 3080 l-3 3020 -23 65 c-63 177 -226 323
-400 359 -38 8 -928 11 -3070 10 -2612 0 -3024 -2 -3072 -15z m3195 -1498
c321 -51 580 -144 800 -287 104 -69 305 -269 374 -374 214 -326 321 -768 321
-1320 -1 -549 -106 -978 -320 -1305 -77 -117 -261 -303 -375 -378 -169 -111
-393 -203 -613 -252 -240 -53 -243 -53 -1104 -57 l-808 -4 0 2001 0 2001 808
-4 c704 -3 821 -6 917 -21z"/>
<path d="M2266 3510 c-4 -919 -4 -1675 -1 -1680 10 -17 972 -12 1140 5 441 45
714 156 936 377 290 290 415 762 387 1459 -30 752 -298 1205 -821 1389 -283
99 -481 120 -1141 120 l-493 0 -7 -1670z"/>
</g>
</svg>
